<svg width="433.8400024414062px" height="204.839990234375px" xmlns="http://www.w3.org/2000/svg" viewBox="33.079998779296886 -27.419995117187497 433.8400024414062 204.839990234375" style="background: rgb(253, 253, 253);" preserveAspectRatio="xMidYMid"><defs><filter id="editing-hole" x="-100%" y="-100%" width="300%" height="300%"><feFlood flood-color="#bbcedd" result="black"></feFlood><feMorphology operator="dilate" radius="2" in="SourceGraphic" result="erode"></feMorphology><feGaussianBlur in="erode" stdDeviation="4" result="blur"></feGaussianBlur><feOffset in="blur" dx="2" dy="2" result="offset"></feOffset><feComposite operator="atop" in="offset" in2="black" result="merge"></feComposite><feComposite operator="in" in="merge" in2="SourceGraphic" result="inner-shadow"></feComposite></filter></defs><g filter="url(#editing-hole)"><g transform="translate(99.00501275062561, 112.77500009536743)"><path d="M3.43 0L28.89-74.34L39.19-74.34L64.64 0L56.36 0L48.88-21.21L18.99-21.21L11.72 0L3.43 0ZM21.01-28.48L46.86-28.48L34.04-67.27L21.01-28.48ZM100.19 0.61L100.19 0.61Q90.60 0.61 85.04-2.37L85.04-2.37L85.04-2.37Q79.49-5.35 76.76-13.53L76.76-13.53L76.76-13.53Q74.03-21.71 74.03-37.37L74.03-37.37L74.03-37.37Q74.03-52.22 76.86-60.35L76.86-60.35L76.86-60.35Q79.69-68.48 85.45-71.71L85.45-71.71L85.45-71.71Q91.20-74.94 100.80-74.94L100.80-74.94L100.80-74.94Q105.44-74.94 111.45-74.18L111.45-74.18L111.45-74.18Q117.46-73.43 122.11-72.22L122.11-72.22L122.11-66.26L122.11-66.26Q118.57-66.76 113.02-67.27L113.02-67.27L113.02-67.27Q107.46-67.77 102.01-67.77L102.01-67.77L102.01-67.77Q94.44-67.77 90.19-65.30L90.19-65.30L90.19-65.30Q85.95-62.82 83.98-56.31L83.98-56.31L83.98-56.31Q82.01-49.79 82.01-37.27L82.01-37.27L82.01-37.27Q82.01-24.34 83.88-17.83L83.88-17.83L83.88-17.83Q85.75-11.31 89.89-8.94L89.89-8.94L89.89-8.94Q94.03-6.57 101.81-6.57L101.81-6.57L101.81-6.57Q114.63-6.57 122.11-7.88L122.11-7.88L122.11-1.82L122.11-1.82Q117.46-0.71 111.66-0.05L111.66-0.05L111.66-0.05Q105.85 0.61 100.19 0.61L100.19 0.61ZM134.53 0L134.53-74.34L163.92-74.34L163.92-74.34Q176.95-74.34 182.66-65.04L182.66-65.04L182.66-65.04Q188.37-55.75 188.37-37.17L188.37-37.17L188.37-37.17Q188.37-19.39 182.15-9.70L182.15-9.70L182.15-9.70Q175.94 0 163.92 0L163.92 0L134.53 0ZM142.61-7.17L163.32-7.17L163.32-7.17Q171.90-7.17 176.14-15.10L176.14-15.10L176.14-15.10Q180.39-23.03 180.39-37.17L180.39-37.17L180.39-37.17Q180.39-48.18 178.62-54.74L178.62-54.74L178.62-54.74Q176.85-61.31 173.11-64.19L173.11-64.19L173.11-64.19Q169.38-67.06 163.32-67.06L163.32-67.06L142.61-67.06L142.61-7.17ZM226.44 0.61L226.44 0.61Q216.85 0.61 211.29-2.37L211.29-2.37L211.29-2.37Q205.74-5.35 203.01-13.53L203.01-13.53L203.01-13.53Q200.28-21.71 200.28-37.37L200.28-37.37L200.28-37.37Q200.28-52.22 203.11-60.35L203.11-60.35L203.11-60.35Q205.94-68.48 211.70-71.71L211.70-71.71L211.70-71.71Q217.45-74.94 227.05-74.94L227.05-74.94L227.05-74.94Q231.69-74.94 237.70-74.18L237.70-74.18L237.70-74.18Q243.71-73.43 248.36-72.22L248.36-72.22L248.36-66.26L248.36-66.26Q244.82-66.76 239.27-67.27L239.27-67.27L239.27-67.27Q233.71-67.77 228.26-67.77L228.26-67.77L228.26-67.77Q220.69-67.77 216.44-65.30L216.44-65.30L216.44-65.30Q212.20-62.82 210.23-56.31L210.23-56.31L210.23-56.31Q208.26-49.79 208.26-37.27L208.26-37.27L208.26-37.27Q208.26-24.34 210.13-17.83L210.13-17.83L210.13-17.83Q212.00-11.31 216.14-8.94L216.14-8.94L216.14-8.94Q220.28-6.57 228.06-6.57L228.06-6.57L228.06-6.57Q240.89-6.57 248.36-7.88L248.36-7.88L248.36-1.82L248.36-1.82Q243.71-0.71 237.91-0.05L237.91-0.05L237.91-0.05Q232.10 0.61 226.44 0.61L226.44 0.61ZM279.27 0.61L279.27 0.61Q274.72 0.61 267.85 0.20L267.85 0.20L267.85 0.20Q260.98-0.20 258.46-0.81L258.46-0.81L258.46-5.66L280.58-5.66L280.58-5.66Q286.23-5.66 288.86-7.17L288.86-7.17L288.86-7.17Q291.49-8.69 291.49-13.53L291.49-13.53L291.49-15.96L291.49-15.96Q291.49-23.53 281.69-23.53L281.69-23.53L274.11-23.53L274.11-23.53Q266.34-23.53 262.15-26.56L262.15-26.56L262.15-26.56Q257.95-29.59 257.95-36.87L257.95-36.87L257.95-39.69L257.95-39.69Q257.95-47.37 262.45-50.90L262.45-50.90L262.45-50.90Q266.94-54.44 276.94-54.44L276.94-54.44L276.94-54.44Q281.29-54.44 287.19-53.98L287.19-53.98L287.19-53.98Q293.10-53.53 296.44-52.92L296.44-52.92L296.44-48.08L275.63-48.08L275.63-48.08Q270.18-48.08 267.55-46.26L267.55-46.26L267.55-46.26Q264.92-44.44 264.92-39.69L264.92-39.69L264.92-37.47L264.92-37.47Q264.92-33.13 267.50-31.66L267.50-31.66L267.50-31.66Q270.07-30.20 275.43-30.20L275.43-30.20L283.10-30.20L283.10-30.20Q290.48-30.20 294.52-26.77L294.52-26.77L294.52-26.77Q298.56-23.33 298.56-16.87L298.56-16.87L298.56-13.13L298.56-13.13Q298.56-5.45 293.61-2.42L293.61-2.42L293.61-2.42Q288.66 0.61 279.27 0.61L279.27 0.61Z" fill="#85a2b6"></path></g></g><style>text {
  font-size: 64px;
  font-family: Arial Black;
  dominant-baseline: central;
  text-anchor: middle;
}</style></svg>