<?xml version="1.0" encoding="utf-8"?>
<!-- Created by sK1 2.0rc5 (https://sk1project.net/) -->
<svg xmlns="http://www.w3.org/2000/svg" height="226.771653543pt" viewBox="0 0 226.771653543 226.771653543" width="226.771653543pt" version="1.1" xmlns:xlink="http://www.w3.org/1999/xlink" id="760efb30-c4c8-11ed-9bd0-52540094930f">

<g>
	<path style="stroke:#fdfdfd;stroke-width:5.6693;stroke-miterlimit:0.0;fill:#2d2c2b;" d="M 24.8186,56.7488 L 102.1064,56.7488 102.1064,32.631 C 102.1052,30.4864 101.0068,28.6102 98.8087,27.0015 96.6094,25.3946 94.0456,24.5903 91.1173,24.5894 L 35.8077,24.5894 C 32.8782,24.5903 30.3144,25.3946 28.1163,27.0015 25.917,28.6102 24.8174,30.4864 24.8186,32.631 L 24.8186,56.7488 Z M 102.1132,193.0559 L 102.1132,128.737 C 102.112,126.5924 101.0136,124.7162 98.8155,123.1075 96.6163,121.5006 94.0525,120.6963 91.1241,120.6954 L 24.8255,120.6954 24.8255,201.0975 91.1241,201.0975 C 94.0525,201.0984 96.6163,200.294 98.8155,198.6854 101.0136,197.0776 102.112,195.2014 102.1132,193.0559 Z M 102.1064,106.0228 L 102.1064,72.832 24.8186,72.832 24.8186,104.6157 91.1241,104.6157 C 94.9982,104.6157 98.6591,105.0843 102.107,106.0214 L 102.1064,106.0228 Z M 141.0938,8.5097 L 185.3,8.5097 C 194.0899,8.5097 201.7825,10.9218 208.3791,15.7461 214.9733,20.5703 218.271,26.1989 218.2722,32.631 218.271,34.7738 217.1714,36.6492 214.9745,38.2569 212.7752,39.8656 210.2114,40.67 207.2831,40.6691 204.3499,40.67 207.4542,39.8656 205.2561,38.2569 203.0569,36.6492 201.9572,34.7738 201.9584,32.631 201.9572,30.4864 200.8588,28.6102 198.6607,27.0015 196.4614,25.3946 193.8976,24.5903 190.9693,24.5894 L 135.6597,24.5894 C 132.7302,24.5903 130.1664,25.3946 127.9683,27.0015 125.7691,28.6102 124.6694,30.4864 124.6706,32.631 L 124.6706,96.9498 C 124.6694,99.0953 125.7691,100.9715 127.9683,102.5793 130.1664,104.188 132.7302,104.9923 135.6597,104.9915 L 190.9693,104.9915 C 193.8976,104.9923 196.4614,104.188 198.6607,102.5793 200.8588,100.9715 201.9572,99.0953 201.9584,96.9498 201.9572,94.8079 203.0569,92.9326 205.2561,91.3239 207.4542,89.717 204.3499,88.9126 207.2807,88.9117 210.2114,88.9126 212.7752,89.717 214.9745,91.3239 217.1714,92.9326 218.271,94.8079 218.2722,96.9498 218.271,103.1865 215.1715,108.6663 208.9735,113.391 215.1715,118.1109 218.271,123.5915 218.2722,129.8274 218.271,131.9702 217.1714,133.8455 214.9745,135.4533 212.7752,137.062 210.2114,137.8663 207.2831,137.8654 204.3499,137.8663 207.4542,137.062 205.2561,135.4533 203.0569,133.8455 201.9572,131.9702 201.9584,129.8274 201.9572,127.6827 200.8588,125.8065 198.6607,124.1979 196.4614,122.591 193.8976,121.7866 190.9693,121.7857 L 135.6597,121.7857 C 132.7302,121.7866 130.1664,122.591 127.9683,124.1979 125.7691,125.8065 124.6694,127.6827 124.6706,129.8274 L 124.6706,194.1462 C 124.6694,196.2917 125.7691,198.1679 127.9683,199.7757 130.1664,201.3844 132.7302,202.1887 135.6597,202.1878 L 190.9693,202.1878 C 193.8976,202.1887 196.4614,201.3844 198.6607,199.7757 200.8588,198.1679 201.9572,196.2917 201.9584,194.1462 201.9572,192.0042 203.0569,190.1289 205.2561,188.5202 207.4542,186.9133 204.3499,186.109 207.2807,186.1081 210.2114,186.109 212.7752,186.9133 214.9745,188.5202 217.1714,190.1289 218.271,192.0042 218.2722,194.1462 218.271,200.5791 214.9733,206.2069 208.3791,211.0311 201.7825,215.8554 194.0899,218.2675 185.3,218.2675 132.5344,218.2675 127.6752,218.69 121.0822,213.8658 118.9589,212.3124 114.3429,207.8411 112.9033,206.121 111.663,207.4453 110.2042,208.7188 108.5339,209.9408 101.9373,214.7651 94.2447,217.1772 85.4548,217.1772 16.57,217.1772 14.0062,216.3737 11.8094,214.7651 9.6101,213.1582 8.5117,211.2811 8.5117,209.1356 L 8.5117,113.0813 8.5051,113.083 C 8.5049,113.0652 8.5048,113.0474 8.5048,113.0296 L 8.5048,32.631 C 8.5048,26.1989 11.8013,20.5703 18.3955,15.7461 24.9885,10.9218 32.6823,8.5097 41.477,8.5097 L 141.329,8.5097" />
	<path style="stroke-width:5.6693;stroke:#ffffff;fill-rule:evenodd;stroke-miterlimit:10.433;fill:#ffed00;" d="M 102.1064,72.832 L 24.8186,72.832 24.8186,104.6157 91.1241,104.6157 102.107,106.0214 102.1064,72.832 Z" />
	<path style="stroke-width:5.6693;stroke:#ffffff;fill-rule:evenodd;stroke-miterlimit:10.433;fill:#009340;" d="M 102.1132,193.0559 L 102.1132,128.737 C 102.112,126.5924 101.0136,124.7162 98.8155,123.1075 96.6163,121.5006 94.0525,120.6963 91.1241,120.6954 L 24.8255,120.6954 24.8255,201.0975 91.1241,201.0975 C 94.0525,201.0984 96.6163,200.294 98.8155,198.6854 101.0136,197.0776 102.112,195.2014 102.1132,193.0559 Z" />
	<path style="stroke-width:5.6693;stroke:#ffffff;fill-rule:evenodd;stroke-miterlimit:10.433;fill:#e31c2a;" d="M 24.8186,56.7488 L 102.1064,56.7488 102.1064,32.631 C 102.1052,30.4864 101.0068,28.6102 98.8087,27.0015 96.6094,25.3946 94.0456,24.5903 91.1173,24.5894 L 35.8077,24.5894 C 32.8782,24.5903 30.3144,25.3946 28.1163,27.0015 25.917,28.6102 24.8174,30.4864 24.8186,32.631 L 24.8186,56.7488 Z" />
</g>
</svg>