<?xml version="1.0" encoding="utf-8"?>
<!-- Created by sK1 2.0rc5 (https://sk1project.net/) -->
<svg xmlns="http://www.w3.org/2000/svg" height="226.771653543pt" viewBox="0 0 226.771653543 226.771653543" width="226.771653543pt" version="1.1" xmlns:xlink="http://www.w3.org/1999/xlink" id="d74aa861-cc69-11ed-af1a-52540094930f">

<g>
	<path style="fill:#20221d;" d="M 72.5596,215.4318 C 56.2334,215.4318 41.9485,211.0592 29.7048,202.3125 17.4592,193.5673 11.3354,183.3626 11.3374,171.6972 L 11.3374,55.0734 C 11.3354,43.4135 17.4592,33.2103 29.7048,24.4608 41.9485,15.7142 56.2334,11.3402 72.5596,11.3388 L 154.2023,11.3388 C 170.5265,11.3402 184.8134,15.7142 197.0609,24.4608 209.3085,33.2103 215.4323,43.4135 215.4323,55.0734 L 215.4323,171.6972 C 215.4323,183.3626 209.3085,193.5673 197.0609,202.3125 184.8134,211.0592 170.5265,215.4318 154.2023,215.4318 L 72.5596,215.4318 Z" />
	<path style="fill-rule:evenodd;fill:#ffffff;" d="M 192.7561,63.732 C 175.895,66.1006 168.1442,70.3071 163.9333,67.3805 157.6149,53.2426 158.3421,44.1618 154.1271,41.238 149.9121,38.3157 144.994,36.8545 139.3747,36.8531 111.2775,36.8531 83.1804,36.8531 55.0832,36.8531 49.468,36.8545 44.5518,38.3157 40.3389,41.238 36.1219,44.1618 34.0144,47.5736 34.0164,51.4733 34.0164,61.222 34.0164,70.9707 34.0164,80.7194 34.0144,84.6206 36.1219,88.0337 40.3389,90.9575 44.5518,93.8841 49.468,95.3467 55.0832,95.3452 83.1804,95.3452 111.2775,95.3452 139.3747,95.3452 156.2285,95.3467 170.9789,94.0637 183.6238,102.8364 187.1634,105.2925 190.2076,107.8633 192.7564,110.5487 192.7563,94.9432 192.7562,79.3376 192.7561,63.732 Z" />
	<path style="fill-rule:evenodd;fill:#ffffff;" d="M 34.0206,116.9367 L 34.0206,164.7598 C 64.2174,169.9102 66.3247,167.7939 66.3268,171.8535 66.3247,175.9161 68.4321,185.1384 72.6489,188.1846 76.8616,191.2308 81.7774,192.7539 87.3923,192.7539 L 171.679,192.7539 C 177.298,192.7539 182.2158,191.2308 186.4306,188.1846 190.6453,185.1384 192.7527,181.5854 192.7527,177.5228 L 192.7527,147.0665 C 192.7527,143.0068 190.6453,136.6178 186.4306,133.5701 182.2158,130.5253 177.298,126.1676 171.679,126.1661 67.729,126.1676 52.2783,127.7757 41.0424,119.6535 38.3866,117.7344 36.0447,115.645 34.0166,113.3855 L 34.0206,116.9367 Z" />
</g>
</svg>